<svg xmlns="http://www.w3.org/2000/svg" xmlns:xlink="http://www.w3.org/1999/xlink" width="150" height="150" viewBox="0 0 150 150">
  <defs>
    <clipPath id="clip-path">
      <rect id="Rectangle_1119" data-name="Rectangle 1119" width="150" height="150" transform="translate(1013 364)" fill="#fff" stroke="#707070" stroke-width="1"/>
    </clipPath>
  </defs>
  <g id="Mask_Group_88" data-name="Mask Group 88" transform="translate(-1013 -364)" clip-path="url(#clip-path)">
    <g id="clouds-2" transform="translate(1013 364)">
      <path id="Path_1956" data-name="Path 1956" d="M129.984,68.143h2.782A11.251,11.251,0,1,0,129.936,46a8.974,8.974,0,0,0-10.224-3.409A14.957,14.957,0,0,0,90.169,45.9c0,.17.007.339.013.507-.188-.059-.381-.107-.574-.156,0,.2-.009.393-.015.588a16.458,16.458,0,0,1,20.394,21.3h11.46" fill="#83d4ed"/>
      <path id="Path_1957" data-name="Path 1957" d="M94.97,45.729a16.634,16.634,0,0,0-4.979.758c.008-.252.019-.5.019-.758A22.367,22.367,0,0,0,45.831,40.78a13.42,13.42,0,0,0-15.289,5.1,16.826,16.826,0,1,0-4.231,33.112H94.969a16.63,16.63,0,1,0,0-33.26Z" fill="#e4f2f9"/>
      <path id="Path_1958" data-name="Path 1958" d="M45.225,44.39q0-1.894.186-3.741a13.413,13.413,0,0,0-14.869,5.229A16.826,16.826,0,1,0,26.312,78.99H68.4A37.412,37.412,0,0,1,45.225,44.39Z" fill="#d7edf9"/>
      <path id="Path_1959" data-name="Path 1959" d="M132.766,45.642a11.275,11.275,0,0,0-2.829.359,8.974,8.974,0,0,0-10.224-3.409,14.974,14.974,0,0,0-11.575-11.341c-.11,1.165-.169,2.344-.169,3.538a37,37,0,0,0,20.97,33.354h3.827a11.251,11.251,0,0,0,0-22.5Z" fill="#9fdef7"/>
      <g id="Group_2064" data-name="Group 2064">
        <path id="Path_1960" data-name="Path 1960" d="M147.47,81.795H2.53a2.53,2.53,0,0,1,0-5.06H147.47a2.53,2.53,0,1,1,0,5.06Z" fill="#5abce2"/>
        <path id="Path_1961" data-name="Path 1961" d="M138.587,96.743h-8.53a2.53,2.53,0,1,1,0-5.06h8.53a2.53,2.53,0,1,1,0,5.06Z" fill="#5abce2"/>
        <path id="Path_1962" data-name="Path 1962" d="M121.835,96.743H11.413a2.53,2.53,0,0,1,0-5.06H121.835a2.53,2.53,0,0,1,0,5.06Z" fill="#5abce2"/>
        <path id="Path_1963" data-name="Path 1963" d="M126.755,111.69H56.379a2.53,2.53,0,0,1,0-5.06h70.377a2.53,2.53,0,1,1,0,5.06Z" fill="#5abce2"/>
        <path id="Path_1964" data-name="Path 1964" d="M47.842,111.69h-24.6a2.53,2.53,0,0,1,0-5.06h24.6a2.53,2.53,0,0,1,0,5.06Z" fill="#5abce2"/>
        <path id="Path_1965" data-name="Path 1965" d="M114,126.638H85.471a2.53,2.53,0,0,1,0-5.06H114a2.53,2.53,0,0,1,0,5.06Z" fill="#5abce2"/>
        <path id="Path_1966" data-name="Path 1966" d="M76.616,126.638H36a2.53,2.53,0,0,1,0-5.06H76.616a2.53,2.53,0,0,1,0,5.06Z" fill="#5abce2"/>
      </g>
    </g>
  </g>
</svg>
