<svg xmlns="http://www.w3.org/2000/svg" xmlns:xlink="http://www.w3.org/1999/xlink" width="150" height="150" viewBox="0 0 150 150">
  <defs>
    <clipPath id="clip-path">
      <rect id="Rectangle_1118" data-name="Rectangle 1118" width="150" height="150" transform="translate(979 469)" fill="#fff" stroke="#707070" stroke-width="1"/>
    </clipPath>
  </defs>
  <g id="Mask_Group_87" data-name="Mask Group 87" transform="translate(-979 -469)" clip-path="url(#clip-path)">
    <g id="clouds" transform="translate(979 469)">
      <path id="Path_1950" data-name="Path 1950" d="M45.694,54.806H56.9A32.923,32.923,0,0,1,76.83,38.881,11.547,11.547,0,0,0,62.707,32.26c.006-.175.013-.35.013-.527A15.515,15.515,0,0,0,32.075,28.3a9.313,9.313,0,0,0-10.606,3.536,11.672,11.672,0,1,0-2.935,22.969H37.192" fill="#9fdef7"/>
      <path id="Path_1951" data-name="Path 1951" d="M109.435,47.742A32.854,32.854,0,0,0,53.389,62.907,19.711,19.711,0,0,0,30.93,70.394a24.717,24.717,0,1,0-6.216,48.641H51.964a15.306,15.306,0,0,1,19.875-14.5c-.007-.231-.017-.463-.017-.7a20.574,20.574,0,0,1,40.638-4.552,12.342,12.342,0,0,1,14.063,4.689,15.493,15.493,0,0,1,17.162,7.016,24.436,24.436,0,0,0-25.427-39.7c.012-.37.028-.741.028-1.114a32.708,32.708,0,0,0-3.763-15.282" fill="#beeafc"/>
      <path id="Path_1952" data-name="Path 1952" d="M26.2,69.651q-.739-.045-1.489-.046a24.715,24.715,0,0,0,0,49.43H51.964a15.229,15.229,0,0,1,1.894-7.272A76.7,76.7,0,0,1,26.2,69.651Z" fill="#aee4ff"/>
      <path id="Path_1953" data-name="Path 1953" d="M23.91,50.984a76.608,76.608,0,0,1,3.515-23.006,9.313,9.313,0,0,0-5.957,3.859,11.672,11.672,0,1,0-2.935,22.969h5.472Q23.913,52.906,23.91,50.984Z" fill="#83d4ed"/>
      <path id="Path_1954" data-name="Path 1954" d="M130.415,102.83a15.493,15.493,0,0,0-3.892.495,12.342,12.342,0,0,0-14.063-4.689,20.574,20.574,0,0,0-40.638,4.552c0,.234.01.466.017.7a15.3,15.3,0,1,0-4.58,29.9h63.156a15.476,15.476,0,1,0,0-30.952Z" fill="#e4f2f9"/>
      <path id="Path_1955" data-name="Path 1955" d="M83.572,98.885a38.126,38.126,0,0,1,3.277-15.51,20.58,20.58,0,0,0-15.028,19.813c0,.234.01.466.017.7a15.3,15.3,0,1,0-4.58,29.9h38.87A38.264,38.264,0,0,1,83.572,98.885Z" fill="#d7edf9"/>
    </g>
  </g>
</svg>
